<svg width="128" height="128" viewBox="0 0 128 128" fill="none" xmlns="http://www.w3.org/2000/svg">
  <circle cx="64" cy="64" r="64" fill="#FFFFFF"/>
  <path d="M10.8359 6.03231C10.8509 4.01741 9.64799 2.19798 7.78346 1.41608C5.93395 0.634172 3.78372 1.0552 2.35524 2.46864C0.926762 3.88208 0.4907 6.03231 1.25757 7.89685C2.02443 9.76139 3.84386 10.9794 5.85877 10.9794H10.8359V6.03231ZM12.2794 6.03231C12.2644 4.01741 13.4673 2.19798 15.3318 1.41608C17.1813 0.634172 19.3316 1.0552 20.76 2.46864C22.1885 3.88208 22.6246 6.03231 21.8577 7.89685C21.0909 9.76139 19.2714 10.9794 17.2565 10.9794H12.2794V6.03231ZM12.2794 17.3549C12.2644 19.3698 13.4673 21.1892 15.3318 21.9711C17.1964 22.753 19.3316 22.332 20.76 20.9186C22.1885 19.5051 22.6246 17.3549 21.8577 15.4903C21.0909 13.6258 19.2714 12.4078 17.2565 12.4078H12.2794V17.3549ZM5.87381 20.9035C7.8436 20.9035 9.43748 19.3247 9.45252 17.3549V13.8062H5.87381C3.91905 13.8062 2.32517 15.4001 2.32517 17.3549C2.32517 19.3096 3.90401 20.9035 5.87381 20.9035ZM10.8359 17.3549C10.8509 19.3698 9.64799 21.1892 7.78346 21.9711C5.91892 22.753 3.78372 22.332 2.35524 20.9186C0.926762 19.5051 0.4907 17.3549 1.25757 15.4903C2.02443 13.6258 3.84386 12.4078 5.85877 12.4078H10.8359V17.3549Z" fill="#43B02A" transform="translate(38, 38) scale(2.15)"/>
</svg>
