<svg width="128" height="128" viewBox="0 0 128 128" fill="none" xmlns="http://www.w3.org/2000/svg">
  <circle cx="64" cy="64" r="64" fill="#FFFFFF"/>
  <path d="M21.8561 9.8394C22.0607 9.8766 22.2467 9.8952 22.4141 9.9324C22.9535 10.0812 23.3255 10.5834 23.3069 11.1042C23.2697 11.6436 22.8605 12.0714 22.2839 12.1644C22.1165 12.183 21.9305 12.183 21.7631 12.183C20.1821 12.183 18.6197 12.183 17.0387 12.183C16.8527 12.183 16.6481 12.183 16.3877 12.183C16.7225 12.8898 17.0201 13.5408 17.3549 14.136C17.7083 14.787 17.7083 15.3636 17.2805 15.9588C16.9829 16.368 16.7411 16.8144 16.4621 17.2794C16.6295 17.3352 16.7411 17.3724 16.8527 17.4096C17.4107 17.6328 17.6897 18.0978 17.6339 18.7116C17.5781 19.251 17.1689 19.6974 16.5737 19.7346C15.7739 19.7718 14.9741 19.7904 14.1929 19.7346C13.2815 19.6788 12.8351 18.7488 13.3001 17.9304C13.7651 17.112 14.2487 16.3122 14.7695 15.531C15.0299 15.1404 15.0485 14.8242 14.8253 14.4336C14.4719 13.8198 14.1929 13.1688 13.8767 12.5364C13.7837 12.3318 13.6721 12.1458 13.3373 12.2946C13.3187 12.7038 13.2815 13.1316 13.2629 13.5594C13.2629 13.7268 13.2443 13.8756 13.2629 14.043C13.3187 14.8242 12.9839 15.2892 12.2399 15.5682C11.3471 15.903 10.4729 16.2936 9.59867 16.647C9.46848 16.7028 9.35687 16.7586 9.17087 16.8516C9.30107 17.0748 9.41267 17.2608 9.50568 17.4654C9.78467 18.0606 9.59868 18.7302 9.05928 19.0278C8.48268 19.344 7.85028 19.2138 7.47828 18.6558C7.10628 18.0606 6.73427 17.4468 6.41807 16.833C6.04607 16.1076 6.32507 15.4008 7.06907 15.1032C8.14787 14.6568 9.22667 14.2476 10.3241 13.8198C10.5101 13.7454 10.6775 13.671 10.8821 13.578C10.8821 13.1688 10.8821 12.7782 10.8821 12.3132C10.6589 12.3132 10.4729 12.3132 10.2869 12.3132C8.50127 12.3132 6.71567 12.3132 4.93007 12.3132C4.72547 12.3132 4.50227 12.3132 4.29768 12.276C3.70247 12.1644 3.27467 11.6622 3.27467 11.1042C3.27467 10.5276 3.70247 10.0254 4.29768 9.9324C4.44648 9.9138 4.61388 9.9138 4.78128 9.8952C5.02308 9.8766 5.07887 9.7464 5.00447 9.4488C4.50227 9.4488 3.98147 9.4488 3.46068 9.4488C3.25607 9.4488 3.03288 9.4488 2.82828 9.4488C2.17728 9.4116 1.69367 8.92799 1.69367 8.2956C1.67507 7.6446 2.15868 7.1052 2.82828 7.0866C3.68388 7.068 4.52087 7.068 5.37647 7.0866C5.63687 7.0866 5.87867 7.068 5.93447 6.6588C5.74847 6.6402 5.56247 6.62159 5.39507 6.62159C4.01867 6.62159 2.64227 6.62159 1.26587 6.62159C0.410272 6.62159 -0.129125 5.8776 0.112675 5.0592C0.261475 4.5756 0.707873 4.2408 1.28447 4.2222C2.19587 4.2036 3.12588 4.2222 4.03728 4.2222C5.17188 4.2222 6.30647 4.2408 7.42247 4.2036C7.64567 4.2036 7.92467 4.1292 8.09207 3.999C9.13367 3.1806 10.3055 2.604 11.5889 2.325C11.6633 2.3064 11.7191 2.2878 11.8121 2.2506C11.6819 1.5996 11.7005 0.967195 12.2027 0.483595C12.5189 0.167395 12.9281 0 13.3931 0C14.5091 0.0186 15.0857 0.836997 14.9369 2.2692C18.8615 3.2736 21.1865 5.7846 21.8561 9.8394ZM19.6427 9.114C19.4753 8.5746 19.3823 8.0166 19.1591 7.5144C18.5267 6.0636 17.4851 5.0034 15.9227 4.5198C15.4763 4.3896 15.1415 4.557 15.0299 4.929C14.9183 5.301 15.0857 5.6358 15.5135 5.8032C17.1317 6.3798 17.9501 7.5888 18.2105 9.22559C18.2849 9.69059 18.5453 9.9324 18.9359 9.8952C19.3637 9.858 19.5683 9.6162 19.6427 9.114Z" fill="#27235C" transform="translate(36, 34) scale(2.35)"/>
</svg>
