<svg width="128" height="128" viewBox="0 0 128 128" fill="none" xmlns="http://www.w3.org/2000/svg">
  <circle cx="64" cy="64" r="64" fill="#FF4C00"/>
  <path d="M24.6278 16.5762C24.6479 15.0966 24.5827 13.617 24.4322 12.1474C24.3219 11.1542 23.9858 9.88025 22.9074 9.61944C23.0464 9.65467 23.1926 9.64945 23.3287 9.60439C24.5777 8.95235 24.4824 7.3423 24.041 6.17866C23.4592 4.65389 22.0798 3.57049 20.7105 2.85325C18.1711 1.58697 15.3551 0.976379 12.5193 1.07713C9.68343 1.17788 6.91788 1.98676 4.47471 3.43005C3.23583 4.19244 1.81136 5.68211 2.43833 7.3423C2.6083 7.75548 2.85896 8.13061 3.17564 8.44576L3.64711 8.9373C3.01012 9.8 2.54366 10.5825 2.24272 11.6307C1.33989 14.7906 1.49036 16.822 1.73613 19.3599C1.89162 20.9299 2.40823 23.2672 4.2189 23.528C5.69352 23.7336 7.29353 23.2471 8.76815 23.0716C10.3932 22.881 12.0334 22.58 13.6785 22.6252C15.9958 22.6854 18.293 23.2321 20.6152 23.2571C21.8391 23.2672 23.8755 23.3876 24.2416 21.7725C24.5877 20.2377 24.6027 18.6427 24.6027 17.0778C24.6228 16.9123 24.6228 16.7417 24.6228 16.5812L24.6278 16.5762ZM21.9795 19.2295C21.4027 20.5286 19.7726 20.3831 18.634 20.2878L13.5431 19.6809C12.0284 19.6358 10.5287 19.9217 9.05404 20.2477C7.95059 20.4885 6.41077 21.1255 5.41264 20.2778C4.30417 19.3399 4.10856 17.7399 4.09351 16.3906C4.11434 15.1723 4.23512 13.9578 4.45464 12.7593C4.59007 12.0169 4.81076 11.2947 5.10167 10.6025C5.49791 9.59937 6.08475 8.99247 6.11484 9.02257C5.81891 8.71661 5.4628 8.55109 5.26217 8.13479C4.5048 6.55484 6.39572 5.21564 7.42896 4.75922C11.0453 3.14416 16.1011 3.30466 19.5168 5.37615C20.5801 6.02317 22.6466 8.24513 20.7156 9.3536C21.9043 9.91536 22.2102 11.6107 22.3407 12.8144C22.5492 14.7479 22.4885 16.7009 22.1601 18.6176C22.1246 18.8287 22.0672 19.0343 21.9795 19.2295Z" fill="white" transform="translate(36, 38) scale(2.2)"/>
</svg>
