<svg width="92" height="23" viewBox="0 0 92 23" fill="none" xmlns="http://www.w3.org/2000/svg">
<path d="M38.0825 15.2349C36.6991 17.0242 34.5639 18.0768 32.3084 18.0918C28.4591 18.0918 25.3916 15.3401 25.3916 11.7013C25.4066 9.94198 26.1434 8.27292 27.4215 7.06999C28.6997 5.86706 30.4138 5.23552 32.1731 5.31071C34.4286 5.32574 36.5638 6.37831 37.9472 8.16766L35.3909 9.98709C34.7143 8.85934 33.4963 8.15262 32.1882 8.13759C30.2184 8.13759 28.6094 9.73147 28.5944 11.7013C28.6545 13.7162 30.3236 15.295 32.3385 15.2649C33.6467 15.2499 34.8496 14.6033 35.6015 13.5357L38.0825 15.2349Z" fill="#63666A"/>
<path d="M42.7135 0.302734H39.5107V17.8204H42.7135V0.302734Z" fill="#63666A"/>
<path d="M51.1946 15.3701C53.2697 15.3852 54.9688 13.7612 55.044 11.6862C54.9387 9.64118 53.2396 8.03226 51.1946 8.03226C49.1496 8.03226 47.4505 9.64118 47.3453 11.6862C47.4204 13.7612 49.1346 15.4002 51.1946 15.3701ZM51.2097 5.2956C52.984 5.20538 54.7132 5.83692 56.0063 7.03985C57.3145 8.24278 58.0664 9.91184 58.1265 11.6862C58.0664 13.4605 57.2995 15.1295 56.0063 16.3325C54.6982 17.5354 52.9689 18.1669 51.2097 18.0767C47.3603 18.0767 44.2628 15.2949 44.2628 11.6862C44.2477 8.09241 47.3302 5.2956 51.2097 5.2956Z" fill="#63666A"/>
<path d="M57.5996 5.55078H61.3588L64.4112 12.1067L67.7042 5.55078H71.1927L64.4112 18.5725L57.5996 5.55078Z" fill="#63666A"/>
<path d="M80.3047 9.98697C79.8085 8.78404 78.6206 7.9871 77.3274 8.00214C75.9741 7.9871 74.7261 8.75396 74.1547 9.98697H80.3047ZM82.3647 16.4377C81.0264 17.5203 79.3574 18.1067 77.6432 18.0917C73.7938 18.0917 70.6963 15.3099 70.6963 11.7011C70.6963 9.9569 71.403 8.28783 72.6661 7.0849C73.9292 5.88197 75.6283 5.2354 77.3575 5.31058C79.0717 5.25044 80.7257 5.91205 81.9286 7.11498C83.1316 8.31791 83.7781 9.98697 83.718 11.6861V12.6033H73.869C74.3652 14.2574 75.8839 15.3701 77.6131 15.355C78.6807 15.3851 79.7032 14.949 80.425 14.1521L82.3647 16.4377ZM85.2668 10.9343C85.2668 8.00214 87.5072 5.55117 91.116 5.55117V8.42316C90.3491 8.37805 89.6123 8.67878 89.1011 9.25017C88.5898 9.80653 88.3493 10.5734 88.4395 11.3252V17.821H85.2668V10.9343Z" fill="#63666A"/>
<path d="M10.8359 6.03231C10.8509 4.01741 9.64799 2.19798 7.78346 1.41608C5.93395 0.634172 3.78372 1.0552 2.35524 2.46864C0.926762 3.88208 0.4907 6.03231 1.25757 7.89685C2.02443 9.76139 3.84386 10.9794 5.85877 10.9794H10.8359V6.03231ZM12.2794 6.03231C12.2644 4.01741 13.4673 2.19798 15.3318 1.41608C17.1813 0.634172 19.3316 1.0552 20.76 2.46864C22.1885 3.88208 22.6246 6.03231 21.8577 7.89685C21.0909 9.76139 19.2714 10.9794 17.2565 10.9794H12.2794V6.03231ZM12.2794 17.3549C12.2644 19.3698 13.4673 21.1892 15.3318 21.9711C17.1964 22.753 19.3316 22.332 20.76 20.9186C22.1885 19.5051 22.6246 17.3549 21.8577 15.4903C21.0909 13.6258 19.2714 12.4078 17.2565 12.4078H12.2794V17.3549ZM5.87381 20.9035C7.8436 20.9035 9.43748 19.3247 9.45252 17.3549V13.8062H5.87381C3.91905 13.8062 2.32517 15.4001 2.32517 17.3549C2.32517 19.3096 3.90401 20.9035 5.87381 20.9035ZM10.8359 17.3549C10.8509 19.3698 9.64799 21.1892 7.78346 21.9711C5.91892 22.753 3.78372 22.332 2.35524 20.9186C0.926762 19.5051 0.4907 17.3549 1.25757 15.4903C2.02443 13.6258 3.84386 12.4078 5.85877 12.4078H10.8359V17.3549Z" fill="#43B02A"/>
</svg>
