<svg width="93" height="25" viewBox="0 0 93 25" fill="none" xmlns="http://www.w3.org/2000/svg">
<g clip-path="url(#clip0_7901_164888)">
<path d="M21.8561 9.8394C22.0607 9.8766 22.2467 9.8952 22.4141 9.9324C22.9535 10.0812 23.3255 10.5834 23.3069 11.1042C23.2697 11.6436 22.8605 12.0714 22.2839 12.1644C22.1165 12.183 21.9305 12.183 21.7631 12.183C20.1821 12.183 18.6197 12.183 17.0387 12.183C16.8527 12.183 16.6481 12.183 16.3877 12.183C16.7225 12.8898 17.0201 13.5408 17.3549 14.136C17.7083 14.787 17.7083 15.3636 17.2805 15.9588C16.9829 16.368 16.7411 16.8144 16.4621 17.2794C16.6295 17.3352 16.7411 17.3724 16.8527 17.4096C17.4107 17.6328 17.6897 18.0978 17.6339 18.7116C17.5781 19.251 17.1689 19.6974 16.5737 19.7346C15.7739 19.7718 14.9741 19.7904 14.1929 19.7346C13.2815 19.6788 12.8351 18.7488 13.3001 17.9304C13.7651 17.112 14.2487 16.3122 14.7695 15.531C15.0299 15.1404 15.0485 14.8242 14.8253 14.4336C14.4719 13.8198 14.1929 13.1688 13.8767 12.5364C13.7837 12.3318 13.6721 12.1458 13.3373 12.2946C13.3187 12.7038 13.2815 13.1316 13.2629 13.5594C13.2629 13.7268 13.2443 13.8756 13.2629 14.043C13.3187 14.8242 12.9839 15.2892 12.2399 15.5682C11.3471 15.903 10.4729 16.2936 9.59867 16.647C9.46848 16.7028 9.35687 16.7586 9.17087 16.8516C9.30107 17.0748 9.41267 17.2608 9.50568 17.4654C9.78467 18.0606 9.59868 18.7302 9.05928 19.0278C8.48268 19.344 7.85028 19.2138 7.47828 18.6558C7.10628 18.0606 6.73427 17.4468 6.41807 16.833C6.04607 16.1076 6.32507 15.4008 7.06907 15.1032C8.14787 14.6568 9.22667 14.2476 10.3241 13.8198C10.5101 13.7454 10.6775 13.671 10.8821 13.578C10.8821 13.1688 10.8821 12.7782 10.8821 12.3132C10.6589 12.3132 10.4729 12.3132 10.2869 12.3132C8.50127 12.3132 6.71567 12.3132 4.93007 12.3132C4.72547 12.3132 4.50227 12.3132 4.29768 12.276C3.70247 12.1644 3.27467 11.6622 3.27467 11.1042C3.27467 10.5276 3.70247 10.0254 4.29768 9.9324C4.44648 9.9138 4.61388 9.9138 4.78128 9.8952C5.02308 9.8766 5.07887 9.7464 5.00447 9.4488C4.50227 9.4488 3.98147 9.4488 3.46068 9.4488C3.25607 9.4488 3.03288 9.4488 2.82828 9.4488C2.17728 9.4116 1.69367 8.92799 1.69367 8.2956C1.67507 7.6446 2.15868 7.1052 2.82828 7.0866C3.68388 7.068 4.52087 7.068 5.37647 7.0866C5.63687 7.0866 5.87867 7.068 5.93447 6.6588C5.74847 6.6402 5.56247 6.62159 5.39507 6.62159C4.01867 6.62159 2.64227 6.62159 1.26587 6.62159C0.410272 6.62159 -0.129125 5.8776 0.112675 5.0592C0.261475 4.5756 0.707873 4.2408 1.28447 4.2222C2.19587 4.2036 3.12588 4.2222 4.03728 4.2222C5.17188 4.2222 6.30647 4.2408 7.42247 4.2036C7.64567 4.2036 7.92467 4.1292 8.09207 3.999C9.13367 3.1806 10.3055 2.604 11.5889 2.325C11.6633 2.3064 11.7191 2.2878 11.8121 2.2506C11.6819 1.5996 11.7005 0.967195 12.2027 0.483595C12.5189 0.167395 12.9281 0 13.3931 0C14.5091 0.0186 15.0857 0.836997 14.9369 2.2692C18.8615 3.2736 21.1865 5.7846 21.8561 9.8394ZM19.6427 9.114C19.4753 8.5746 19.3823 8.0166 19.1591 7.5144C18.5267 6.0636 17.4851 5.0034 15.9227 4.5198C15.4763 4.3896 15.1415 4.557 15.0299 4.929C14.9183 5.301 15.0857 5.6358 15.5135 5.8032C17.1317 6.3798 17.9501 7.5888 18.2105 9.22559C18.2849 9.69059 18.5453 9.9324 18.9359 9.8952C19.3637 9.858 19.5683 9.6162 19.6427 9.114Z" fill="#27235C"/>
<path d="M49.439 10.9919C49.9784 10.3037 50.6294 9.85728 51.4664 9.70848C53.5496 9.31788 55.484 10.1363 56.321 12.0335C57.1952 14.0609 57.158 16.0883 55.9304 17.9855C55.0748 19.2875 53.8286 19.9199 52.2476 19.9199C51.206 19.9199 50.2946 19.6967 49.532 18.7853C49.5134 19.0085 49.4948 19.1387 49.4948 19.2689C49.4948 20.5895 49.4948 21.9101 49.4948 23.2307C49.4762 24.1979 48.6578 24.8117 47.765 24.5327C47.2442 24.3653 46.9466 23.9933 46.8536 23.4725C46.835 23.3423 46.835 23.1935 46.835 23.0447C46.835 19.1201 46.835 15.2141 46.835 11.2895C46.835 10.7501 46.9652 10.3223 47.4488 10.0433C48.1184 9.65269 48.9554 9.91308 49.2902 10.6199C49.3274 10.7129 49.3646 10.8245 49.439 10.9919ZM49.4204 14.7491C49.5134 15.1769 49.5692 15.6233 49.718 16.0325C50.0528 16.9067 50.7224 17.3903 51.6338 17.4833C52.5452 17.5763 53.3078 17.2415 53.81 16.4603C54.368 15.5861 54.3494 14.6561 54.089 13.7075C53.7914 12.6473 52.9172 11.9963 51.8756 11.9777C50.8526 11.9591 50.0156 12.5729 49.6622 13.6331C49.5506 13.9679 49.4948 14.3399 49.4204 14.7491Z" fill="#27235C"/>
<path d="M65.6219 18.6941C63.4085 20.8517 59.8559 20.1449 58.7213 17.2247C57.9215 15.1787 57.9773 13.1327 59.3723 11.2913C60.5813 9.71027 62.2925 9.31967 64.1153 9.74747C64.6361 9.87767 65.1011 10.2683 65.6033 10.5659C65.6033 10.4915 65.6405 10.3613 65.6405 10.2125C65.6591 8.98487 65.6591 7.73867 65.6777 6.51108C65.6963 5.58108 66.5333 5.00447 67.4075 5.28347C67.8539 5.43227 68.1329 5.72987 68.2445 6.15767C68.3003 6.38087 68.3375 6.60407 68.3375 6.84587C68.3189 10.6775 68.3003 14.5091 68.3003 18.3407C68.3003 18.9173 68.1515 19.4009 67.5749 19.6427C67.0913 19.8473 66.6263 19.8101 66.2357 19.4939C65.9753 19.3079 65.8265 18.9917 65.6219 18.6941ZM65.7335 14.8253C65.7149 14.8253 65.6963 14.8067 65.6777 14.8067C65.6405 14.5463 65.6405 14.2859 65.5847 14.0255C65.3987 12.9839 64.5989 12.2213 63.5573 12.0725C62.6087 11.9423 61.5857 12.4259 61.1951 13.3373C60.7301 14.3603 60.7301 15.4391 61.2881 16.4435C61.7345 17.2433 62.4599 17.6153 63.3527 17.5967C64.2641 17.5595 64.9895 17.1317 65.3429 16.2575C65.5103 15.7925 65.6033 15.2903 65.7335 14.8253Z" fill="#27235C"/>
<path d="M86.9569 10.4346C87.5707 9.91385 88.2961 9.67205 89.0959 9.59765C91.0861 9.39305 92.6857 10.6393 92.9461 12.6109C93.0019 13.0945 93.0391 13.5967 93.0391 14.0803C93.0577 15.4753 93.0391 16.8702 93.0391 18.2653C93.0391 18.8047 92.8717 19.2697 92.3695 19.5673C91.4953 20.088 90.3979 19.4929 90.3793 18.4699C90.3607 17.0005 90.3793 15.5311 90.3793 14.0803C90.3793 13.857 90.3607 13.6153 90.3235 13.3921C90.1375 12.4621 89.6167 12.0157 88.6867 11.9785C87.8311 11.9413 87.1429 12.4249 86.9197 13.2805C86.8453 13.5409 86.8267 13.8012 86.8267 14.0616C86.8081 15.4938 86.8267 16.9261 86.8267 18.3582C86.8267 18.8047 86.6965 19.1953 86.3431 19.4742C85.5991 20.0695 84.5389 19.7533 84.2599 18.8419C84.1855 18.6187 84.1855 18.3583 84.1855 18.1165C84.1855 14.3593 84.1855 10.6021 84.1855 6.82625C84.1855 6.71465 84.1855 6.62165 84.1855 6.51005C84.2413 5.69165 84.7621 5.18945 85.5433 5.18945C86.3245 5.18945 86.8639 5.72885 86.8639 6.52865C86.8825 7.62605 86.8639 8.72345 86.8639 9.82085C86.8639 10.0069 86.8639 10.1929 86.8639 10.3789C86.8825 10.3975 86.9197 10.416 86.9569 10.4346Z" fill="#27235C"/>
<path d="M30.4123 9.96882C30.8587 9.96882 31.2121 9.96882 31.5841 9.96882C31.7887 9.96882 32.0119 9.96883 32.2165 10.0246C32.7745 10.1734 33.1279 10.6756 33.0535 11.215C32.9977 11.773 32.5699 12.2008 32.0119 12.238C31.6027 12.2566 31.1935 12.238 30.8029 12.2566C30.6913 12.2566 30.5611 12.2752 30.3937 12.2938C30.3751 12.517 30.3751 12.7216 30.3751 12.9262C30.3751 14.749 30.3751 16.5718 30.3751 18.376C30.3751 18.9526 30.1705 19.3618 29.6497 19.6222C28.8499 20.0128 27.9571 19.6036 27.7525 18.7294C27.6967 18.5062 27.6967 18.283 27.6967 18.0412C27.6967 16.3114 27.6967 14.5816 27.6967 12.8518C27.6967 12.6658 27.6967 12.4798 27.6967 12.2008C27.2503 12.2008 26.8411 12.2194 26.4505 12.2008C26.0041 12.1822 25.6321 11.9776 25.4461 11.5312C25.2601 11.122 25.3345 10.7314 25.5763 10.378C25.8181 10.0618 26.1529 9.91303 26.5435 9.91303C26.9341 9.91303 27.3247 9.91303 27.7711 9.91303C27.7897 9.67123 27.7897 9.46663 27.7897 9.26203C27.8269 8.74123 27.8083 8.20183 27.9385 7.68103C28.4407 5.67223 30.3007 5.00262 31.9561 5.24442C32.2723 5.30022 32.6071 5.41183 32.9047 5.56063C33.3697 5.82103 33.5557 6.34183 33.4255 6.84403C33.3139 7.27183 32.9419 7.51362 32.3653 7.55082C32.0119 7.56942 31.6585 7.56942 31.3237 7.66242C30.7657 7.79262 30.4867 8.14603 30.4495 8.72263C30.3937 9.09463 30.4123 9.48522 30.4123 9.96882Z" fill="#27235C"/>
<path d="M78.7911 9.57812C79.3863 9.68972 80.0001 9.78272 80.5953 9.93152C81.1719 10.0803 81.5811 10.4523 81.9159 10.9359C82.2321 11.4009 82.2135 11.8473 81.8601 12.2379C81.5067 12.6285 80.9859 12.7401 80.5209 12.4797C80.2419 12.3309 80.0187 12.1077 79.7397 11.9217C79.2003 11.5497 78.6423 11.5497 78.0843 11.8473C77.7681 12.0147 77.5635 12.2937 77.6007 12.6657C77.6379 13.0377 77.8797 13.2609 78.2331 13.3725C78.4005 13.4283 78.5679 13.4655 78.7539 13.5027C79.3305 13.6515 79.9257 13.7631 80.5023 13.9305C81.0417 14.0793 81.5253 14.3397 81.9159 14.7303C83.3853 16.2183 82.8273 18.8037 80.8185 19.5849C79.4979 20.1057 78.1587 20.0871 76.8567 19.5105C76.2801 19.2501 75.7965 18.8781 75.4431 18.3387C75.1455 17.8923 75.1641 17.3343 75.5175 16.9809C75.9081 16.5531 76.4847 16.4787 76.9497 16.8135C77.1543 16.9437 77.3217 17.1297 77.5077 17.3157C78.0285 17.7993 78.6237 17.9667 79.3119 17.8365C79.8141 17.7435 80.1675 17.3901 80.1861 16.9623C80.2047 16.5531 79.9443 16.2183 79.4421 16.0695C79.0143 15.9393 78.5865 15.8649 78.1587 15.7347C77.7309 15.6231 77.3031 15.5301 76.8939 15.3441C75.4059 14.7117 74.7549 13.0563 75.4617 11.6055C76.0941 10.2105 77.2473 9.59673 78.7911 9.57812Z" fill="#27235C"/>
<path d="M35.0625 11.4937C35.0625 9.89407 35.0625 8.27587 35.0625 6.67627C35.0625 5.95087 35.3973 5.48587 35.9925 5.28127C36.7737 5.02087 37.5735 5.44867 37.7409 6.24847C37.7967 6.50887 37.8153 6.76927 37.8153 7.02967C37.8153 10.0243 37.8153 13.0375 37.8153 16.0321C37.8153 16.2553 37.8339 16.4971 37.9269 16.7017C38.0571 17.0179 38.3733 17.0365 38.6895 17.0923C39.9543 17.2783 40.1031 18.6175 39.6009 19.2685C39.3219 19.6033 38.9871 19.7707 38.5407 19.7707C36.6621 19.8265 35.1183 18.2827 35.0625 16.3111C35.0625 16.2739 35.0625 16.2367 35.0625 16.1995C35.0625 14.6371 35.0625 13.0747 35.0625 11.4937Z" fill="#27235C"/>
<path d="M70.6626 14.7687C70.6626 13.5597 70.644 12.3693 70.6626 11.1603C70.6812 10.3419 71.2578 9.8025 72.0576 9.8397C72.7272 9.8583 73.2294 10.3419 73.3038 11.0487C73.341 11.3277 73.3038 11.6067 73.3038 11.8857C73.3038 14.0619 73.3224 16.2195 73.3224 18.3957C73.3224 19.4745 72.2808 20.0883 71.3508 19.5861C70.8672 19.3257 70.644 18.9165 70.6626 18.3771C70.6626 17.1681 70.6626 15.9777 70.6626 14.7687Z" fill="#27235C"/>
<path d="M41.4785 14.7499C41.4785 13.5223 41.4785 12.3133 41.4785 11.0857C41.4785 10.4533 41.9063 9.95108 42.5015 9.83948C43.1711 9.72788 43.7849 10.0255 44.0081 10.6393C44.1011 10.8997 44.1197 11.1973 44.1197 11.4763C44.1383 13.6711 44.1569 15.8473 44.1755 18.0421C44.1755 18.2839 44.1569 18.5443 44.1011 18.7675C43.9337 19.4185 43.3385 19.8091 42.6503 19.7347C41.9993 19.6603 41.4971 19.1581 41.4971 18.5071C41.4785 17.2609 41.4785 16.0147 41.4785 14.7499Z" fill="#27235C"/>
<path d="M73.6577 6.7523C73.6763 7.6823 72.9695 8.3891 72.0395 8.4077C71.1281 8.4077 70.4027 7.7381 70.3841 6.8453C70.3655 5.9153 71.1095 5.1713 72.0395 5.1527C72.9323 5.1341 73.6391 5.8409 73.6577 6.7523Z" fill="#27235C"/>
<path d="M44.436 6.82578C44.4174 7.73718 43.7292 8.40678 42.7992 8.38818C41.8692 8.36958 41.181 7.66278 41.1996 6.71418C41.2182 5.80278 41.925 5.11458 42.8364 5.13318C43.7664 5.15178 44.4546 5.87718 44.436 6.82578Z" fill="#27235C"/>
</g>
<defs>
<clipPath id="clip0_7901_164888">
<rect width="93" height="24.5892" fill="white"/>
</clipPath>
</defs>
</svg>
