<svg width="92" height="25" viewBox="0 0 92 25" fill="none" xmlns="http://www.w3.org/2000/svg">
<path fill-rule="evenodd" clip-rule="evenodd" d="M33.2 22.0736C30.6972 22.0736 29.343 20.7996 29.343 18.4221V11.4503H28.4702C28.0539 11.4453 27.6527 11.2748 27.3617 10.9788C27.0708 10.6829 26.9103 10.2867 26.9204 9.87538C26.9404 9.04779 27.6276 8.38572 28.4702 8.3807H29.343V6.3042C29.4182 5.38131 30.2006 4.66406 31.1436 4.66406C32.0865 4.66406 32.874 5.37629 32.9442 6.3042V8.3807H34.3486C34.7497 8.39232 35.1307 8.55852 35.4121 8.84455C35.6934 9.13059 35.8533 9.51431 35.8584 9.91551C35.8533 10.3167 35.6934 10.7004 35.4121 10.9865C35.1307 11.2725 34.7497 11.4387 34.3486 11.4503H32.9442V17.4792C32.9442 18.5325 33.6213 18.9438 34.1831 18.9438H34.4941C35.5073 18.9438 36.074 19.6059 36.074 20.4686C36.074 21.3313 35.5373 22.0736 33.2 22.0736Z" fill="#FF4C00"/>
<path d="M44.4607 22.0719C39.9867 22.0719 37.2832 18.8618 37.2832 15.0449C37.2832 11.258 39.9917 8.04798 44.4607 8.04798C48.9648 8.04798 51.6683 11.258 51.6683 15.0449C51.6983 15.9913 51.5311 16.9336 51.1771 17.8118C50.8231 18.69 50.2902 19.4849 49.6122 20.1459C48.9342 20.8069 48.1261 21.3195 47.2391 21.6511C46.3522 21.9827 45.406 22.126 44.4607 22.0719ZM44.4607 11.1728C42.2337 11.1728 40.9998 12.9684 40.9998 15.0449C40.9998 17.1214 42.2387 18.9521 44.4607 18.9521C46.6826 18.9521 47.9516 17.1565 47.9516 15.0449C47.9516 12.9684 46.6826 11.1728 44.4607 11.1728ZM64.3028 21.9064H64.0219C63.7411 21.9064 62.4721 21.6857 62.4721 20.3565C61.5442 21.4349 59.9442 22.0719 58.1686 22.0719C56.0018 22.0719 53.4388 20.6324 53.4388 17.643C53.4388 14.5182 56.0018 13.3295 58.1686 13.3295C59.9743 13.3295 61.5743 13.9113 62.4721 14.9596V13.159C62.4721 11.8047 61.2884 10.917 59.4877 10.917C58.4119 10.8946 57.3537 11.1932 56.4482 11.7747C56.2525 11.8935 56.0299 11.9608 55.8012 11.9703C55.0488 11.9602 54.447 11.3533 54.447 10.616C54.451 10.3722 54.5184 10.1337 54.6426 9.92386C55.4852 8.5947 58.5247 8.04297 60.0997 8.04297C63.1943 8.04297 66.0382 9.26179 66.0382 13.1038V20.1609C66.0433 21.1139 65.2658 21.8963 64.2928 21.9014L64.3028 21.9064ZM62.4721 16.8706C61.8802 16.0982 60.7567 15.707 59.6031 15.707C58.1937 15.707 57.0401 16.4192 57.0401 17.7283C57.0401 18.9722 58.1937 19.6945 59.6031 19.6945C60.7567 19.6945 61.8802 19.3082 62.4721 18.5308V16.8706Z" fill="#FF4C00"/>
<path fill-rule="evenodd" clip-rule="evenodd" d="M74.4942 22.0736C72.7237 22.0736 69.8798 21.4918 69.0371 20.298C68.8716 20.0823 68.7813 19.8215 68.7863 19.5507C68.7967 19.1612 68.9578 18.7909 69.2356 18.5178C69.5134 18.2446 69.8864 18.0899 70.276 18.0861C70.5368 18.0861 70.7876 18.1563 71.0083 18.2917C72.0766 18.8986 73.486 19.3701 74.6647 19.3701C76.2146 19.3701 76.9469 18.7632 76.9469 17.9306C76.9469 15.7187 68.8666 17.5143 68.8666 12.2578C68.8666 10.0158 70.8678 8.05468 74.439 8.05468C76.2096 8.05468 78.6322 8.61143 79.3945 9.68479C79.5405 9.88234 79.6196 10.1213 79.6203 10.3669C79.5952 11.1092 78.9732 11.7011 78.2159 11.6961C77.9801 11.6966 77.7477 11.6398 77.5387 11.5306C76.5989 11.0056 75.5406 10.7293 74.4641 10.7281C73.1701 10.7281 72.3274 11.3099 72.3274 12.0572C72.3274 14.0485 80.3776 12.3883 80.3776 17.7801C80.3776 20.2178 78.266 22.0736 74.4942 22.0736ZM87.5802 22.0736C85.0773 22.0736 83.7231 20.7996 83.7231 18.4221V11.4503H82.8504C82.4341 11.4453 82.0328 11.2748 81.7419 10.9788C81.451 10.6829 81.2905 10.2867 81.3005 9.87538C81.3206 9.04779 82.0077 8.38572 82.8504 8.3807H83.7231V6.3042C83.7644 5.85542 83.9721 5.4383 84.3053 5.13482C84.6384 4.83133 85.0731 4.66342 85.5237 4.66406C86.4667 4.66406 87.2542 5.37629 87.3244 6.3042V8.3807H88.7338C89.1348 8.39232 89.5159 8.55852 89.7973 8.84456C90.0786 9.13059 90.2385 9.51432 90.2435 9.91551C90.2385 10.3167 90.0786 10.7004 89.7973 10.9865C89.5159 11.2725 89.1348 11.4387 88.7338 11.4503H87.3244V17.4792C87.3244 18.5325 88.0015 18.9438 88.5633 18.9438H88.8742C89.8874 18.9438 90.4492 19.6059 90.4492 20.4686C90.4492 21.3313 89.9225 22.0736 87.5802 22.0736Z" fill="#FF4C00"/>
<path d="M24.6278 16.5762C24.6479 15.0966 24.5827 13.617 24.4322 12.1474C24.3219 11.1542 23.9858 9.88025 22.9074 9.61944C23.0464 9.65467 23.1926 9.64945 23.3287 9.60439C24.5777 8.95235 24.4824 7.3423 24.041 6.17866C23.4592 4.65389 22.0798 3.57049 20.7105 2.85325C18.1711 1.58697 15.3551 0.976379 12.5193 1.07713C9.68343 1.17788 6.91788 1.98676 4.47471 3.43005C3.23583 4.19244 1.81136 5.68211 2.43833 7.3423C2.6083 7.75548 2.85896 8.13061 3.17564 8.44576L3.64711 8.9373C3.01012 9.8 2.54366 10.5825 2.24272 11.6307C1.33989 14.7906 1.49036 16.822 1.73613 19.3599C1.89162 20.9299 2.40823 23.2672 4.2189 23.528C5.69352 23.7336 7.29353 23.2471 8.76815 23.0716C10.3932 22.881 12.0334 22.58 13.6785 22.6252C15.9958 22.6854 18.293 23.2321 20.6152 23.2571C21.8391 23.2672 23.8755 23.3876 24.2416 21.7725C24.5877 20.2377 24.6027 18.6427 24.6027 17.0778C24.6228 16.9123 24.6228 16.7417 24.6228 16.5812L24.6278 16.5762ZM21.9795 19.2295C21.4027 20.5286 19.7726 20.3831 18.634 20.2878L13.5431 19.6809C12.0284 19.6358 10.5287 19.9217 9.05404 20.2477C7.95059 20.4885 6.41077 21.1255 5.41264 20.2778C4.30417 19.3399 4.10856 17.7399 4.09351 16.3906C4.11434 15.1723 4.23512 13.9578 4.45464 12.7593C4.59007 12.0169 4.81076 11.2947 5.10167 10.6025C5.49791 9.59937 6.08475 8.99247 6.11484 9.02257C5.81891 8.71661 5.4628 8.55109 5.26217 8.13479C4.5048 6.55484 6.39572 5.21564 7.42896 4.75922C11.0453 3.14416 16.1011 3.30466 19.5168 5.37615C20.5801 6.02317 22.6466 8.24513 20.7156 9.3536C21.9043 9.91536 22.2102 11.6107 22.3407 12.8144C22.5492 14.7479 22.4885 16.7009 22.1601 18.6176C22.1246 18.8287 22.0672 19.0343 21.9795 19.2295Z" fill="#FF4C00"/>
</svg>
